<svg xmlns="http://www.w3.org/2000/svg" viewBox="0 0 1600 160" width="1600" height="160" role="img" aria-labelledby="title desc">
  <!-- NOVA Mission Control section header -->
  <title id="title">Mission Control</title>
  <desc id="desc">NOVA active project operations header.</desc>
  <defs>
    <filter id="glow" x="-80%" y="-280%" width="260%" height="660%"><feGaussianBlur stdDeviation="3" result="b"/><feMerge><feMergeNode in="b"/><feMergeNode in="SourceGraphic"/></feMerge></filter>
    <filter id="shadow" x="-20%" y="-70%" width="140%" height="240%"><feDropShadow dx="0" dy="8" stdDeviation="12" flood-color="#020617" flood-opacity=".55"/></filter>
  </defs>
  <g font-family="Inter,Segoe UI,Arial,sans-serif" filter="url(#shadow)">
    <path d="M88 86h510M1002 86h510" stroke="#00E5FF" stroke-opacity=".2"/>
    <path d="M252 86h346M1002 86h346" stroke="#00E5FF" stroke-opacity=".72" stroke-width="2" stroke-linecap="round" filter="url(#glow)"/>
    <g transform="translate(112 56)" fill="none" stroke-linecap="round" stroke-linejoin="round"><rect width="56" height="56" rx="16" fill="#111C2B" fill-opacity=".88" stroke="#00E5FF" stroke-opacity=".48"/><path d="m13 37 15-11 9 9 11-16M13 17l5 5M32 14l-4 5" stroke="#00E5FF" stroke-width="2.5" filter="url(#glow)"/><circle cx="37" cy="19" r="3" fill="#7C3AED" stroke="none"/></g>
    <text x="800" y="67" text-anchor="middle" fill="#7F91AA" font-size="10" font-weight="700" letter-spacing="2.2">NOVA // PROJECT OPERATIONS</text>
    <text x="800" y="101" text-anchor="middle" fill="#EFF8FF" font-size="26" font-weight="700" letter-spacing="1.4">MISSION CONTROL</text>
    <path d="M754 121h92" stroke="#00E5FF" stroke-width="2" stroke-linecap="round" filter="url(#glow)"/>
    <g transform="translate(1344 56)"><rect width="144" height="56" rx="16" fill="#111C2B" fill-opacity=".88" stroke="#00E5FF" stroke-opacity=".42"/><circle cx="24" cy="28" r="5" fill="#00FFA3" filter="url(#glow)"/><text x="40" y="32" fill="#B9FFE2" font-size="11" font-weight="700" letter-spacing="1">3 ONLINE</text></g>
  </g>
</svg>
