<svg xmlns="http://www.w3.org/2000/svg" viewBox="0 0 700 420" width="700" height="420" role="img" aria-label="CreditWise project card">
  <!-- NOVA project card: CreditWise Loan System -->
  <defs>
    <linearGradient id="edge" x1="0" y1="0" x2="1" y2="1"><stop stop-color="#F6C453" stop-opacity=".78"/><stop offset=".52" stop-color="#425A75" stop-opacity=".35"/><stop offset="1" stop-color="#00E5FF" stop-opacity=".68"/></linearGradient>
    <filter id="glow" x="-80%" y="-100%" width="260%" height="300%"><feGaussianBlur stdDeviation="3" result="b"/><feMerge><feMergeNode in="b"/><feMergeNode in="SourceGraphic"/></feMerge></filter>
    <filter id="shadow" x="-15%" y="-18%" width="130%" height="140%"><feDropShadow dx="0" dy="14" stdDeviation="16" flood-color="#020617" flood-opacity=".58"/></filter>
  </defs>
  <g font-family="Inter,Segoe UI,Arial,sans-serif" filter="url(#shadow)">
    <rect x="16" y="16" width="668" height="388" rx="22" fill="#101827" fill-opacity=".92" stroke="url(#edge)" stroke-width="1.25"/>
    <path d="M17 86H683" stroke="#3D526D" stroke-opacity=".56"/>
    <circle cx="48" cy="51" r="6" fill="#F6C453" filter="url(#glow)"/><text x="65" y="55" fill="#8799B2" font-size="11" font-weight="700" letter-spacing="1.5">ML-003</text>
    <g transform="translate(580 39)"><rect width="72" height="24" rx="12" fill="#332A14" stroke="#F6C453" stroke-opacity=".62"/><circle cx="16" cy="12" r="4" fill="#F6C453" filter="url(#glow)"/><text x="27" y="16" fill="#FFE7A3" font-size="10" font-weight="700" letter-spacing=".8">ACTIVE</text></g>
    <!-- Credit and protection icon -->
    <g transform="translate(48 112)" fill="none" stroke-linecap="round" stroke-linejoin="round"><rect width="96" height="96" rx="18" fill="#302712" stroke="#F6C453" stroke-opacity=".6"/><path d="M48 22 69 30v17c0 15-10 25-21 29-11-4-21-14-21-29V30Z" stroke="#F6C453" stroke-width="3" filter="url(#glow)"/><path d="M52 35c-2-3-10-2-10 2 0 7 15 4 15 12 0 5-8 6-12 2M49 31v25" stroke="#00E5FF" stroke-width="2.5"/></g>
    <text x="168" y="130" fill="#FFF8E6" font-size="30" font-weight="700" letter-spacing="-.8">CreditWise</text>
    <text x="168" y="156" fill="#F6C453" font-size="11" font-weight="700" letter-spacing="1.7">LOAN MANAGEMENT SYSTEM</text>
    <text x="168" y="187" fill="#AAB8CB" font-size="14">Backend system for customer records, loan</text><text x="168" y="207" fill="#AAB8CB" font-size="14">processing, and secure database operations.</text>
    <path d="M48 238H652" stroke="#3B4D66" stroke-opacity=".62"/>
    <text x="48" y="267" fill="#7F91AA" font-size="10" font-weight="700" letter-spacing="1.5">TECH STACK</text>
    <g font-size="11" font-weight="700"><rect x="48" y="280" width="72" height="26" rx="13" fill="#302712" stroke="#75612D"/><text x="66" y="297" fill="#FFE8A3">Python</text><rect x="129" y="280" width="66" height="26" rx="13" fill="#142B38" stroke="#315B70"/><text x="145" y="297" fill="#B9F7FF">Sklearn</text><rect x="204" y="280" width="82" height="26" rx="13" fill="#142B38" stroke="#315B70"/><text x="221" y="297" fill="#B9F7FF">Tensorflow</text></g>
    <text x="48" y="342" fill="#7F91AA" font-size="10" font-weight="700" letter-spacing="1.5">REPOSITORY</text><text x="48" y="365" fill="#C8D6E8" font-size="13">github.com/adit301206/CreditWise_Loan_System</text>
    <text x="518" y="342" fill="#7F91AA" font-size="10" font-weight="700" letter-spacing="1.5">VERSION</text><text x="518" y="365" fill="#FFE09A" font-size="13" font-weight="700">v1.0</text>
  </g>
</svg>
