<svg xmlns="http://www.w3.org/2000/svg" viewBox="0 0 700 420" width="700" height="420" role="img" aria-label="PrepWise project card">
  <!-- NOVA project card: PrepWise -->
  <defs>
    <linearGradient id="edge" x1="0" y1="0" x2="1" y2="1"><stop stop-color="#7C3AED" stop-opacity=".78"/><stop offset=".52" stop-color="#425A75" stop-opacity=".35"/><stop offset="1" stop-color="#00FFA3" stop-opacity=".72"/></linearGradient>
    <filter id="glow" x="-80%" y="-100%" width="260%" height="300%"><feGaussianBlur stdDeviation="3" result="b"/><feMerge><feMergeNode in="b"/><feMergeNode in="SourceGraphic"/></feMerge></filter>
    <filter id="shadow" x="-15%" y="-18%" width="130%" height="140%"><feDropShadow dx="0" dy="14" stdDeviation="16" flood-color="#020617" flood-opacity=".58"/></filter>
  </defs>
  <g font-family="Inter,Segoe UI,Arial,sans-serif" filter="url(#shadow)">
    <rect x="16" y="16" width="668" height="388" rx="22" fill="#101827" fill-opacity=".92" stroke="url(#edge)" stroke-width="1.25"/>
    <path d="M17 86H683" stroke="#3D526D" stroke-opacity=".56"/>
    <circle cx="48" cy="51" r="6" fill="#7C3AED" filter="url(#glow)"/><text x="65" y="55" fill="#8799B2" font-size="11" font-weight="700" letter-spacing="1.5">EDU-002</text>
    <g transform="translate(580 39)"><rect width="72" height="24" rx="12" fill="#173329" stroke="#00FFA3" stroke-opacity=".58"/><circle cx="16" cy="12" r="4" fill="#00FFA3" filter="url(#glow)"/><text x="27" y="16" fill="#B5FFE1" font-size="10" font-weight="700" letter-spacing=".8">ACTIVE</text></g>
    <!-- Adaptive learning icon -->
    <g transform="translate(48 112)" fill="none" stroke-linecap="round" stroke-linejoin="round"><rect width="96" height="96" rx="18" fill="#241B3B" stroke="#7C3AED" stroke-opacity=".58"/><path d="m21 42 27-14 27 14-27 14ZM32 48v13c9 7 23 7 32 0V48M75 42v17" stroke="#C4B5FD" stroke-width="3" filter="url(#glow)"/><circle cx="75" cy="62" r="3" fill="#00FFA3" stroke="none"/></g>
    <text x="168" y="130" fill="#F2EEFF" font-size="30" font-weight="700" letter-spacing="-.8">PrepWise</text>
    <text x="168" y="156" fill="#A78BFA" font-size="11" font-weight="700" letter-spacing="1.7">SMART EDUCATION PLATFORM</text>
    <text x="168" y="187" fill="#AAB8CB" font-size="14">Focused study workflows that help students</text><text x="168" y="207" fill="#AAB8CB" font-size="14">prepare efficiently and productively.</text>
    <path d="M48 238H652" stroke="#3B4D66" stroke-opacity=".62"/>
    <text x="48" y="267" fill="#7F91AA" font-size="10" font-weight="700" letter-spacing="1.5">TECH STACK</text>
    <g font-size="11" font-weight="700"><rect x="48" y="280" width="72" height="26" rx="13" fill="#241B3B" stroke="#584788"/><text x="66" y="297" fill="#DED6FF">Python</text><rect x="129" y="280" width="61" height="26" rx="13" fill="#173329" stroke="#2D725A"/><text x="145" y="297" fill="#B5FFE1">Flask</text><rect x="199" y="280" width="83" height="26" rx="13" fill="#241B3B" stroke="#584788"/><text x="216" y="297" fill="#DED6FF">Supabase</text></g>
    <text x="48" y="342" fill="#7F91AA" font-size="10" font-weight="700" letter-spacing="1.5">REPOSITORY</text><text x="48" y="365" fill="#C8D6E8" font-size="13">github.com/adit301206/PrepWise</text>
    <text x="518" y="342" fill="#7F91AA" font-size="10" font-weight="700" letter-spacing="1.5">VERSION</text><text x="518" y="365" fill="#B9A9FF" font-size="13" font-weight="700">v1.0</text>
  </g>
</svg>
